<?xml version="1.0" standalone="no"?>
<!DOCTYPE svg PUBLIC "-//W3C//DTD SVG 20010904//EN"
 "http://www.w3.org/TR/2001/REC-SVG-20010904/DTD/svg10.dtd">
<svg version="1.0" xmlns="http://www.w3.org/2000/svg"
 width="708.000000pt" height="708.000000pt" viewBox="0 0 708.000000 708.000000"
 preserveAspectRatio="xMidYMid meet">
<metadata>
Created by potrace 1.14, written by Peter Selinger 2001-2017
</metadata>
<g transform="translate(0.000000,708.000000) scale(0.100000,-0.100000)"
fill="#000000" stroke="none">
<path d="M2874 6808 c-65 -79 -123 -149 -129 -156 -5 -7 -15 -18 -20 -25 -6
-7 -30 -37 -55 -67 -25 -30 -47 -57 -50 -60 -3 -3 -34 -41 -69 -85 -75 -93
-83 -102 -111 -132 -11 -13 -20 -25 -20 -28 0 -3 -8 -13 -17 -23 -10 -10 -34
-38 -53 -62 -19 -24 -42 -51 -50 -60 -8 -9 -42 -49 -74 -90 -33 -41 -73 -91
-90 -110 -17 -20 -47 -55 -66 -80 -19 -24 -45 -55 -57 -69 -12 -14 -79 -96
-149 -181 -70 -85 -129 -157 -133 -160 -3 -3 -19 -23 -36 -45 -16 -22 -34 -45
-40 -51 -5 -6 -26 -30 -45 -54 -19 -24 -45 -55 -57 -69 -13 -14 -26 -30 -31
-36 -4 -5 -37 -46 -73 -90 -36 -44 -98 -120 -139 -170 -40 -49 -81 -99 -91
-110 -10 -11 -34 -40 -54 -65 -20 -25 -44 -54 -53 -65 -10 -11 -46 -56 -82
-100 -35 -44 -69 -85 -75 -91 -5 -7 -26 -31 -45 -55 -49 -60 -188 -230 -208
-254 -9 -11 -37 -45 -62 -75 -25 -30 -53 -64 -62 -75 -22 -27 -223 -270 -262
-318 -17 -22 -39 -49 -50 -60 -10 -12 -30 -38 -45 -57 -14 -19 -31 -39 -37
-45 -6 -5 -40 -46 -75 -90 -35 -44 -72 -89 -81 -99 -10 -11 -18 -23 -18 -26 0
-4 102 -7 228 -8 224 -1 1623 -11 2024 -15 l207 -2 -1 -428 c0 -236 3 -431 6
-435 4 -3 365 -6 803 -6 l797 -1 0 -1148 c0 -631 3 -1147 6 -1147 3 0 14 12
25 27 11 14 34 43 50 63 17 20 46 55 65 79 19 24 40 48 45 55 6 6 28 34 50 61
58 73 69 86 80 99 6 6 28 34 50 61 21 28 42 52 45 55 4 4 64 77 190 234 8 10
20 23 25 30 6 6 35 43 65 81 30 39 63 79 75 91 11 11 25 27 30 36 10 15 199
249 220 272 6 6 39 47 74 91 36 44 70 85 78 91 7 6 13 16 13 22 0 6 3 12 8 14
4 2 27 28 52 58 25 30 47 57 50 60 3 3 21 25 40 50 19 25 37 47 40 50 5 5 73
88 135 165 17 21 35 43 40 49 6 6 26 31 45 56 19 25 40 50 45 55 6 6 38 44 71
85 32 41 66 83 74 93 8 11 20 24 25 31 6 6 58 70 115 141 58 72 107 132 110
135 6 6 66 80 151 185 35 44 68 85 74 91 5 6 21 25 35 43 14 18 33 42 44 54
20 24 86 106 99 122 4 5 17 21 28 35 12 14 47 57 78 95 31 39 61 75 66 81 12
13 53 63 130 159 31 39 64 79 73 90 9 11 56 68 104 128 l88 107 -88 0 c-48 0
-603 0 -1233 0 l-1145 1 0 420 c1 247 -3 423 -8 427 -5 3 -369 5 -808 5 l-798
0 0 21 c-1 12 -1 526 -1 1144 -1 617 -2 1122 -4 1122 -2 0 -57 -64 -121 -142z
m-409 -2130 l0 -863 -682 -2 c-376 -2 -683 0 -683 2 0 3 48 66 108 141 59 74
114 145 122 157 8 12 23 29 32 38 10 9 18 21 18 27 0 6 3 12 8 14 6 3 61 69
119 145 12 15 31 39 42 53 25 30 9 10 166 210 71 91 132 167 135 170 4 4 73
90 123 155 4 6 36 46 71 90 253 319 375 474 391 497 11 15 22 28 25 28 3 0 6
-388 5 -862z m1583 -453 c4 -3 7 -310 7 -681 l0 -674 -25 -1 c-109 -5 -1004
-3 -1012 2 -7 5 -11 224 -11 680 l0 674 34 5 c51 7 999 3 1007 -5z m1932 -950
c0 -1 -8 -11 -17 -23 -10 -11 -28 -34 -40 -49 -12 -15 -59 -76 -105 -134 -45
-58 -94 -121 -108 -139 -14 -18 -30 -38 -35 -44 -6 -6 -62 -76 -125 -156 -63
-80 -118 -149 -122 -155 -5 -5 -27 -35 -50 -65 -24 -30 -45 -57 -48 -60 -3 -3
-64 -79 -135 -170 -71 -91 -134 -169 -140 -175 -6 -5 -20 -24 -32 -40 -19 -28
-215 -276 -263 -335 -12 -14 -48 -60 -81 -102 -33 -43 -62 -78 -64 -78 -3 0
-5 389 -5 864 l0 863 685 1 c377 0 685 -1 685 -3z"/>
</g>
</svg>
